<svg width="21" height="16" viewBox="0 0 21 16" fill="none" xmlns="http://www.w3.org/2000/svg">
<path d="M20.8031 3.4125C20.8031 3.4125 20.6062 1.8375 19.95 1.18125C19.1625 0.2625 18.2437 0.2625 17.85 0.2625C14.8969 0 10.5 0 10.5 0C10.5 0 6.10313 0 3.15 0.196875C2.75625 0.2625 1.8375 0.2625 1.05 1.11563C0.39375 1.77188 0.196875 3.34687 0.196875 3.34687C0.196875 3.34687 0 5.18437 0 7.02187V8.72813C0 10.5656 0.196875 12.3375 0.196875 12.3375C0.196875 12.3375 0.39375 13.9125 1.05 14.5688C1.8375 15.4875 2.8875 15.4219 3.34687 15.5531C5.05312 15.6844 10.5 15.75 10.5 15.75C10.5 15.75 14.8969 15.75 17.85 15.4875C18.2437 15.4219 19.1625 15.4219 19.95 14.5688C20.6062 13.9125 20.8031 12.3375 20.8031 12.3375C20.8031 12.3375 21 10.5 21 8.72813V7.02187C21 5.18437 20.8031 3.4125 20.8031 3.4125ZM7.875 11.8125V3.9375L14.4375 7.875L7.875 11.8125Z" fill="#999999"/>
</svg>
